<?xml version="1.0" encoding="utf-8"?>
<!-- Generator: Adobe Illustrator 22.1.0, SVG Export Plug-In . SVG Version: 6.00 Build 0)  -->
<svg version="1.1" id="Layer_1" xmlns="http://www.w3.org/2000/svg" xmlns:xlink="http://www.w3.org/1999/xlink" x="0px" y="0px"
	 viewBox="0 0 210.5 242.6" style="enable-background:new 0 0 210.5 242.6;" xml:space="preserve">
<style type="text/css">
	.st0{fill:#DFC860;}
</style>
<path class="st0" d="M105.6,4c0.6,0.7,0.8,1.4,1.1,2.2C116.8,29,126.9,51.9,137,74.8c9.6,21.8,19.2,43.6,28.8,65.3
	c10,22.7,20,45.4,30,68.1c4.6,10.5,9.3,21.1,14,31.6c0.1,0.1,0.1,0.3,0.2,0.4c0.6,1.4,0.5,1.5-1,1.5c-21.2,0-42.3,0-63.5,0
	c-1.1,0-1.6-0.3-2.1-1.3c-2.4-5.8-4.9-11.6-7.4-17.5c-0.5-1.2-1.1-1.7-2.5-1.6c-2.5,0.1-5,0-7.4,0c-0.9,0-1.6-0.2-2.1-1.1
	c-1.1-2.3-3-3-5.4-3c-1.6,0-3.2-0.2-4.7-0.6c-1.9-0.5-3-1.7-3.3-3.8c-0.5-3.5,0.2-6.9,0.6-10.4c0.6-4.7,1.9-9.3,1.8-14.1
	c0-1.4-0.1-2.9-0.3-4.3c-0.4-2.7-0.1-5.3,0.7-7.9c1.6-5.4,2.1-10.9,1.8-16.5c-0.1-2.4-0.5-4.8-1.1-7.1c-0.2-0.8-0.1-1.2,0.7-1.4
	c2.1-0.6,3.4-2,3.9-4.2c1.2-4.6,2.3-9.3,2.9-14.1c0.2-1.8,0.1-3.6-0.3-5.4c-0.4-1.7-1.4-2.8-2.8-3.7c-1.1-0.6-2.2-1-3.4-1.5
	c-1.3-0.5-2.6-1-3.6-2c-1.7-1.7-2-3.3-1-5.5c1.2-2.8,1.4-5.9,0.8-8.8c-0.5-2.7-3.3-4.2-6.5-3.8c-2.6,0.3-4.6,2.5-4.6,5.1
	c-0.1,2.9,0,5.8,1.4,8.5c0.6,1.1,0.2,2.6-0.7,3.7c-0.8,1-1.8,1.8-3.1,2.3c-0.6,0.2-1.1,0.5-1.7,0.7c-5.3,1.7-6.6,3.8-6.1,10.2
	c0.4,4.8,1.6,9.4,2.8,14.1c0.6,2.3,1.8,3.9,4.2,4.5c0.8,0.2,0.8,0.6,0.6,1.2c-1,3.7-1.3,7.5-1.3,11.3c0,3.5,0.4,7,1.3,10.3
	c1.1,3.7,1.7,7.5,1.1,11.3c-0.7,4.2,0.2,8.4,0.8,12.5c0.7,4.3,1.6,8.5,1.5,12.8c0,0.8-0.1,1.5-0.2,2.3c-0.3,2-1.4,3.2-3.3,3.7
	c-1.6,0.4-3.3,0.6-5,0.6c-2.2,0.1-4,0.7-5,2.8c-0.5,1-1.3,1.3-2.4,1.3c-2.6-0.1-5.1,0-7.7,0c-0.9,0-1.4,0.3-1.8,1.2
	c-2.5,6-5.1,11.9-7.6,17.9c-0.4,1-1,1.3-2.1,1.3c-21.2,0-42.3,0-63.5,0c-1.6,0-1.6,0-1-1.4c6.2-14,12.3-28,18.5-41.9
	c5.7-13,11.4-26,17.2-39c5.8-13.2,11.6-26.3,17.4-39.5c5.8-13.1,11.5-26.1,17.3-39.2C77.7,66.8,83.8,53,89.9,39.2
	c4.9-11.1,9.7-22.1,14.6-33.2C104.8,5.4,105,4.7,105.6,4z"/>
</svg>
